# xmcd
#
# Track frame offsets:
#	150
#	13420
#	27927
#	48568
#	66120
#	78631
#	91020
#	110017
#	128676
#	154444
#	171270
#	184142
#	204180
#	213065
#	230417
#	249269
#	274522
#	291837
#	308691
#
# Disc length: 4378 seconds
#
# Revision: 0
# Processed by: cddbd v1.5PL3 Copyright (c) Steve Scherf et al.
# Submitted via: audiograbber 1.81.02
#
DISCID=04111813
DTITLE=LOVE - 3 CD3 BOXSET
DYEAR=1900
DGENRE=Blues
TTITLE0=GALLAGHER $ LYLE - I Wanna Stay With You
TTITLE1=MAMA CASS - Dream A Little Dream
TTITLE2=PETER SKELLERN - You're A Lady
TTITLE3=PEACHES and HERB - Reunited
TTITLE4=THE FOUR TOPS - If I Were A Carpenter
TTITLE5=THE SUPREMES - You Can't Hurry Love
TTITLE6=JOE JACKSON - Steppin' Out
TTITLE7=BILLIE MYERS - Kiss The Rain
TTITLE8=ETREME - More Than Words
TTITLE9=LEVEL 42 - Something About You
TTITLE10=JAMES BROWN and LYNN COLLINS - What My Baby Needs Now Is A Little More L
TTITLE10=ovin'
TTITLE11=LIONEL RICHIE and DIANA ROSS - Endless Love
TTITLE12=THE MINDBENDERS - A Groovy Kind Of Love
TTITLE13=SHANCE - I Love Your Smile
TTITLE14=MICHAEL JACKSON - One Day In Your Life
TTITLE15=BARRY WHITE - Just The Way You Are
TTITLE16=CHER - If I Could Turn Back Time
TTITLE17=DINA CARROLL - The Perfect Year
TTITLE18=JOAN ARMTRADING - Love And Affection
EXTD=kiroiva@hotmail.com
EXTT0=
EXTT1=
EXTT2=
EXTT3=
EXTT4=
EXTT5=
EXTT6=
EXTT7=
EXTT8=
EXTT9=
EXTT10=
EXTT11=
EXTT12=
EXTT13=
EXTT14=
EXTT15=
EXTT16=
EXTT17=
EXTT18=
PLAYORDER=
